<svg xmlns="http://www.w3.org/2000/svg" viewBox="0 0 700 700">
    <style>
        path {
            fill: #0e58f5
        }

        @media (prefers-color-scheme:dark) {
            path {
                fill: #5e8df5
            }
        }
    </style>
    <path
        d="M169.5 118.1c-11.8 1.4-14.2 1.9-23.2 4.8-17.8 5.8-31.6 14.3-44.8 27.6-15.3 15.4-24.5 31.4-30.2 52.7-2.4 9.3-2.7 12-2.7 26.8 0 13.5.4 18.1 2.2 25.2 7.8 31.7 26.1 56.3 53.7 72.6 6.7 3.9 22.5 10.6 27.6 11.6 9.8 2 14.9 2.8 18.8 3.1 2.5.2 83.4.4 179.6.5 186.4 0 180.7-.1 191.1 4.7 14.9 6.8 26.7 19.8 31.1 34.3 2.3 7.5 2.3 7.6 2.7 15.5 1.2 26.7-18.1 51.5-44.4 56.9-4.6.9-16.8 1.3-41.8 1.4-35.2 0-35.3 0-37.9-2.2l-2.6-2.3-.2-27.4c-.1-19.7-.5-28.1-1.4-29.9-2-4.2-7.6-7.3-12.7-7.2-5.1 0-6.6.9-27.9 16.7-7.1 5.3-14.1 10.4-15.4 11.3s-3.5 2.6-5 3.8c-1.4 1.1-18.6 13.8-38.3 28.2-19.6 14.5-36.2 26.9-36.8 27.7-2.6 3.1-3.8 8.6-2.7 12.7 1.1 4.6 2.8 6.1 25.7 23.3 9.1 6.8 17 12.8 17.5 13.2.6.4 5.5 4.2 11 8.3s10.2 7.7 10.5 8 3 2.3 6 4.5 5.7 4.2 6 4.5c.8.8 39.2 29.4 42 31.3 6.8 4.4 16.4 1.7 19.9-5.7 2-3.9 2.1-6.1 2.1-31.3 0-26.2.1-27 2.1-28.9 2-1.8 4.2-1.9 37.9-2 45.9-.2 52.7-.9 70.4-7.7 34.2-13 61-43.1 69.2-77.7.9-3.6 1.8-7.4 2.1-8.5 1.3-5.3 1.1-30.4-.3-38.4-4.1-22.7-14.8-43.5-30.8-59.6-19.1-19.1-41-29.8-68.1-33.2-2.2-.3-83.6-.6-181-.7-97.3-.1-178.8-.6-180.9-1.1-18.6-3.9-35.5-18.4-41.6-35.8-11.4-32.3 6.7-65.7 40.1-74.3 5.8-1.5 26-1.7 224.4-1.8l218-.1 4.6-2.1c6.7-3.1 12.3-9.1 14.9-16 5.2-13.8-1.1-29.1-14.6-35.6l-4.9-2.3-217.5-.1c-119.6 0-220.2.3-223.5.7zM94.5 456.2c-10.7 1.4-15.4 4-20.6 11.1-3.9 5.3-4.9 7.9-5.6 14.4-.8 8.4 1.8 15.6 8 21.8 9.3 9.2 5 8.8 89.2 8.8 40.1 0 74.7-.3 76.8-.7 12.9-2.1 22.9-14.3 22.8-27.7 0-13.7-10.6-26-23.6-27.6-6.6-.8-141.2-.9-147-.1z" />
</svg>