<svg height="700pt" preserveAspectRatio="xMidYMid meet" viewBox="0 0 700 700" width="700pt" xmlns="http://www.w3.org/2000/svg"><g transform="matrix(.1 0 0 -.1 0 700)"><path d="m1695 5819c-118-14-142-19-232-48-178-58-316-143-448-276-153-154-245-314-302-527-24-93-27-120-27-268 0-135 4-181 22-252 78-317 261-563 537-726 67-39 225-106 276-116 98-20 149-28 188-31 25-2 834-4 1796-5 1864 0 1807 1 1911-47 149-68 267-198 311-343 23-75 23-76 27-155 12-267-181-515-444-569-46-9-168-13-418-14-352 0-353 0-379 22l-26 23-2 274c-1 197-5 281-14 299-20 42-76 73-127 72-51 0-66-9-279-167-71-53-141-104-154-113s-35-26-50-38c-14-11-186-138-383-282-196-145-362-269-368-277-26-31-38-86-27-127 11-46 28-61 257-233 91-68 170-128 175-132 6-4 55-42 110-83s102-77 105-80 30-23 60-45 57-42 60-45c8-8 392-294 420-313 68-44 164-17 199 57 20 39 21 61 21 313 0 262 1 270 21 289 20 18 42 19 379 20 459 2 527 9 704 77 342 130 610 431 692 777 9 36 18 74 21 85 13 53 11 304-3 384-41 227-148 435-308 596-191 191-410 298-681 332-22 3-836 6-1810 7-973 1-1788 6-1809 11-186 39-355 184-416 358-114 323 67 657 401 743 58 15 260 17 2244 18l2180 1 46 21c67 31 123 91 149 160 52 138-11 291-146 356l-49 23-2175 1c-1196 0-2202-3-2235-7z"/><path d="m945 2438c-107-14-154-40-206-111-39-53-49-79-56-144-8-84 18-156 80-218 93-92 50-88 892-88 401 0 747 3 768 7 129 21 229 143 228 277 0 137-106 260-236 276-66 8-1412 9-1470 1z"/></g></svg>